<svg width="151" height="151" viewBox="0 0 151 151" fill="none" xmlns="http://www.w3.org/2000/svg">
<g filter="url(#filter0_d_2151_201)">
<rect x="5.49414" y="5.49414" width="130.026" height="130.026" rx="25.639" fill="#F6B90E"/>
<rect x="2.7471" y="2.7471" width="135.52" height="135.52" rx="28.386" stroke="white" stroke-width="5.49407"/>
<rect x="2.7471" y="2.7471" width="135.52" height="135.52" rx="28.386" stroke="black" stroke-width="5.49407"/>
</g>
<rect x="27.4707" y="62.2661" width="87.9052" height="58.6034" rx="12.8195" fill="black"/>
<rect x="32.9639" y="65.9287" width="76.917" height="49.4467" rx="11.2171" fill="white"/>
<path d="M27.4707 36.627H115.376V54.9405C115.376 58.9862 112.096 62.266 108.05 62.266H34.7961C30.7504 62.266 27.4707 58.9863 27.4707 54.9405V36.627Z" fill="black"/>
<path d="M45.7842 36.627H54.941V58.6032H48.5312C47.0141 58.6032 45.7842 57.3734 45.7842 55.8562V36.627Z" fill="white"/>
<path d="M73.2539 36.627H82.4107V58.6032H76.0009C74.4838 58.6032 73.2539 57.3734 73.2539 55.8562V36.627Z" fill="white"/>
<path d="M100.725 36.627H109.881V58.6032H103.472C101.954 58.6032 100.725 57.3734 100.725 55.8562V36.627Z" fill="white"/>
<path d="M124.344 41.3391C125.996 42.5198 126.416 45.1672 124.56 45.9898C123.911 46.2774 123.184 46.3889 122.284 46.3047C120.716 46.1577 119.373 45.2155 118.119 44.2615C101.03 31.2542 55.8605 25.3551 28.3762 41.9687C24.5737 44.2671 19.482 49.303 17.3632 45.3976C16.687 44.1513 17.1981 42.2762 18.3494 41.4485C31.9357 31.6802 50.6989 25.6392 71.4232 25.6392C92.07 25.6392 110.77 31.6352 124.344 41.3391Z" fill="black"/>
<circle cx="113.544" cy="31.133" r="7.32543" fill="black"/>
<circle cx="113.545" cy="31.1329" r="3.66271" fill="white"/>
<path d="M55.466 84.4569C55.7886 84.3103 56.2871 84.149 56.9616 83.973C57.6654 83.7677 58.3692 83.6651 59.073 83.6651C60.3047 83.6651 61.3311 83.8557 62.1522 84.2369C62.9733 84.5888 63.4719 85.1167 63.6478 85.8205C63.9704 87.0229 64.2637 88.1519 64.5276 89.2076C64.8208 90.234 65.0994 91.2311 65.3634 92.1988C65.6273 93.1372 65.8766 94.0757 66.1112 95.0141C66.3751 95.9525 66.6244 96.9349 66.859 97.9613H67.0789C67.3428 96.1724 67.5774 94.4715 67.7827 92.8586C67.988 91.2164 68.1786 89.6182 68.3546 88.0639C68.5305 86.4803 68.7065 84.9261 68.8824 83.4012C69.0584 81.8469 69.2343 80.278 69.4103 78.6944C70.4953 78.0786 71.6537 77.7707 72.8854 77.7707C73.9704 77.7707 74.9088 78.0053 75.7006 78.4745C76.4924 78.9437 76.8883 79.7355 76.8883 80.8498C76.8883 81.495 76.815 82.4188 76.6684 83.6211C76.5511 84.7941 76.3751 86.1138 76.1405 87.58C75.9352 89.0463 75.686 90.5859 75.3927 92.1988C75.0994 93.8117 74.7915 95.3513 74.4689 96.8176C74.1464 98.2839 73.8091 99.6182 73.4572 100.821C73.1346 101.994 72.8267 102.903 72.5335 103.548C72.0936 103.958 71.3751 104.296 70.378 104.56C69.381 104.823 68.3546 104.955 67.2988 104.955C65.9205 104.955 64.7475 104.779 63.7798 104.428C62.8414 104.046 62.2695 103.518 62.0642 102.844C61.683 101.671 61.2725 100.278 60.8326 98.6651C60.3927 97.0522 59.9235 95.278 59.4249 93.3425C59.0144 95.2487 58.5892 97.1108 58.1493 98.929C57.7094 100.747 57.3135 102.287 56.9616 103.548C56.5217 103.958 55.8619 104.296 54.9821 104.56C54.1024 104.823 53.1346 104.955 52.0789 104.955C50.7593 104.955 49.5569 104.779 48.4719 104.428C47.4161 104.046 46.727 103.518 46.4044 102.844C46.1405 102.316 45.8472 101.539 45.5246 100.513C45.2314 99.4569 44.9235 98.2692 44.6009 96.9496C44.2783 95.6006 43.9411 94.149 43.5892 92.5947C43.2666 91.0405 42.9587 89.4862 42.6654 87.932C42.4015 86.3777 42.1522 84.8674 41.9176 83.4012C41.683 81.9056 41.507 80.5419 41.3897 79.3102C41.8003 78.929 42.3722 78.5771 43.1053 78.2545C43.8384 77.9319 44.6302 77.7707 45.4807 77.7707C46.595 77.7707 47.5041 78.0199 48.2079 78.5185C48.9411 78.9877 49.3956 79.7941 49.5716 80.9378C50.0408 83.929 50.422 86.4217 50.7153 88.4158C51.0378 90.41 51.2871 92.0522 51.4631 93.3425C51.6683 94.6035 51.815 95.5859 51.9029 96.2897C51.9909 96.9935 52.0789 97.5507 52.1669 97.9613H52.3868C52.6507 96.7883 52.9 95.7032 53.1346 94.7062C53.3692 93.7091 53.6038 92.712 53.8384 91.7149C54.1024 90.6886 54.3663 89.6035 54.6302 88.4598C54.8942 87.2868 55.1727 85.9525 55.466 84.4569Z" fill="black"/>
<rect x="38.459" y="36.627" width="73.2543" height="1.83136" fill="black"/>
<defs>
<filter id="filter0_d_2151_201" x="0" y="0" width="150.171" height="150.171" filterUnits="userSpaceOnUse" color-interpolation-filters="sRGB">
<feFlood flood-opacity="0" result="BackgroundImageFix"/>
<feColorMatrix in="SourceAlpha" type="matrix" values="0 0 0 0 0 0 0 0 0 0 0 0 0 0 0 0 0 0 127 0" result="hardAlpha"/>
<feOffset dx="9.15679" dy="9.15679"/>
<feComposite in2="hardAlpha" operator="out"/>
<feColorMatrix type="matrix" values="0 0 0 0 0.0144231 0 0 0 0 0.0144231 0 0 0 0 0.0144231 0 0 0 1 0"/>
<feBlend mode="normal" in2="BackgroundImageFix" result="effect1_dropShadow_2151_201"/>
<feBlend mode="normal" in="SourceGraphic" in2="effect1_dropShadow_2151_201" result="shape"/>
</filter>
</defs>
</svg>
